# xmcd
#
# Track frame offsets: 
#        150
#        12080
#        45808
#        67926
#        90663
#        106327
#        121311
#        132824
#        156558
#        171474
#        185508
#        200236
#        212342
#        224527
#        234666
#        247221
#        257638
#        274139
#
# Disc length: 3816 seconds
#
# Revision: 0
# Processed by: cddbd v1.5.2PL0 Copyright (c) Steve Scherf et al.
# Submitted via: ExactAudioCopyFreeDBPlugin 1.0
#
DISCID=090ee612
DTITLE=Ray Charles - 18 Greatest
DYEAR=2006
DGENRE=R&B
TTITLE0=Hit the Road Jack (Live)
TTITLE1=Georgia on my Mind (Live)
TTITLE2=What'd I Say (Live)
TTITLE3=I've Got a Woman (Live)
TTITLE4=You are my Sunshine (Live)
TTITLE5=Let's Go Get Stoned (Live)
TTITLE6=Let the Good Times Roll (Live)
TTITLE7=Night Time is the Right Time (Live)
TTITLE8=Hallelujah, I Lover Her So (Live)
TTITLE9=Crying Time (Live)
TTITLE10=Eleanor Rigby (Live)
TTITLE11=Mess Around
TTITLE12=C.C. Rider
TTITLE13=I'm Movin' On (Live)
TTITLE14=You Always Miss the Water (When the Well Runs Dry)
TTITLE15=Ain't that Fine
TTITLE16=I Believe to my Soul (Live)
TTITLE17=Going Down Slow
EXTD=
EXTT0=
EXTT1=
EXTT2=
EXTT3=
EXTT4=
EXTT5=
EXTT6=
EXTT7=
EXTT8=
EXTT9=
EXTT10=
EXTT11=
EXTT12=
EXTT13=
EXTT14=
EXTT15=
EXTT16=
EXTT17=
PLAYORDER=
